<?xml version="1.0" encoding="utf-8"?>
<!-- Generator: Adobe Illustrator 22.1.0, SVG Export Plug-In . SVG Version: 6.00 Build 0)  -->
<svg version="1.1" id="Слой_1" xmlns="http://www.w3.org/2000/svg" xmlns:xlink="http://www.w3.org/1999/xlink" x="0px" y="0px"
	 viewBox="0 0 68 68" style="enable-background:new 0 0 68 68;" xml:space="preserve">
<style type="text/css">
	.st0{fill:#FFFFFF;}
</style>
<path class="st0" d="M34,18c5,0,9-4,9-9s-4-9-9-9s-9,4-9,9S29.1,18,34,18z M34,2c3.9,0,7,3.1,7,7s-3.1,7-7,7s-7-3.1-7-7S30.2,2,34,2
	z"/>
<path class="st0" d="M57.7,45.6c-1.5-0.6-3.2-1.1-5-1.5c-0.5-0.1-1.1,0.2-1.2,0.7c-0.1,0.5,0.2,1.1,0.7,1.2c1.7,0.4,3.3,0.9,4.8,1.4
	c5.7,2.1,9,4.8,9,7.5s-3.3,5.5-9,7.5C51,64.7,43,66,34.5,66c-0.2,0-0.3,0-0.5,0c-0.1,0-0.3,0-0.4,0c0,0,0,0-0.1,0
	C14.7,65.9,2,60.2,2,55c0-2.7,3.3-5.5,9-7.5c1.4-0.5,3-1,4.6-1.4c0.5-0.1,0.9-0.7,0.7-1.2c-0.1-0.5-0.7-0.9-1.2-0.7
	c-1.7,0.4-3.3,0.9-4.8,1.5C3.7,48,0,51.4,0,55c0,7.2,14.7,12.9,33.4,13c0.2,0,0.4,0,0.6,0s0.4,0,0.5,0c8.7,0,16.9-1.3,23.2-3.6
	C64.4,62,68,58.7,68,55C68,51.4,64.4,48,57.7,45.6z"/>
<path class="st0" d="M8,54.4c0,4.5,9.1,7.1,17.6,8c2.7,0.3,5.6,0.4,8.4,0.4c2.8,0,5.7-0.1,8.4-0.4c3.5-0.4,6.8-1,9.6-1.8
	c5.3-1.6,8-3.7,8-6.2c0-2.5-2.8-4.6-8-6.2c-2.1-0.6-4.6-1.2-7.3-1.5c-0.5-0.1-1.1,0.3-1.1,0.9c-0.1,0.5,0.3,1.1,0.9,1.1
	c2.6,0.4,5,0.8,7,1.5c4.9,1.4,6.6,3.2,6.6,4.3c0,1.1-1.7,2.8-6.6,4.3c-2.6,0.8-5.8,1.4-9.2,1.7c-5.4,0.5-11,0.5-16.4,0
	c-10.3-1.1-15.8-3.9-15.8-6c0-1.1,1.7-2.8,6.6-4.3c2-0.6,4.4-1.1,7-1.5c0.5-0.1,0.9-0.6,0.9-1.1c-0.1-0.5-0.6-0.9-1.1-0.9
	c-2.7,0.4-5.2,0.9-7.3,1.5C10.8,49.7,8,51.9,8,54.4z"/>
<path class="st0" d="M26.8,48.3v2c0,4,3.2,7.2,7.2,7.2s7.2-3.2,7.2-7.2v-2c0-1.8,0.5-3.5,1.5-5c1.2-1.8,1.9-3.9,1.9-6.1V26.8
	c0-3.7-3-6.8-6.8-6.8h-7.7c-3.7,0-6.8,3-6.8,6.8v10.4c0,2.2,0.6,4.3,1.9,6.1C26.3,44.8,26.8,46.5,26.8,48.3z M25.4,26.8
	c0-2.6,2.1-4.8,4.8-4.8h7.7c2.6,0,4.8,2.1,4.8,4.8v10.4c0,1.8-0.5,3.5-1.5,5c-1.2,1.8-1.9,3.9-1.9,6.1v2c0,2.9-2.3,5.2-5.2,5.2
	s-5.2-2.3-5.2-5.2v-2c0-2.2-0.6-4.3-1.9-6.1c-1-1.5-1.5-3.2-1.5-5V26.8z"/>
</svg>
