<?xml version="1.0" encoding="utf-8"?>
<!-- Generator: Adobe Illustrator 22.1.0, SVG Export Plug-In . SVG Version: 6.00 Build 0)  -->
<svg version="1.1" id="Слой_1" xmlns="http://www.w3.org/2000/svg" xmlns:xlink="http://www.w3.org/1999/xlink" x="0px" y="0px"
	 viewBox="0 0 68 68" style="enable-background:new 0 0 68 68;" xml:space="preserve">
<style type="text/css">
	.st0{fill:#FFFFFF;}
</style>
<g>
	<polygon class="st0" points="56,10.1 58,10.1 58,12.1 60,12.1 60,8.1 56,8.1 	"/>
	<rect x="58" y="15.2" class="st0" width="2" height="4.5"/>
	<polygon class="st0" points="58,24.7 56,24.7 56,26.7 60,26.7 60,22.7 58,22.7 	"/>
	<rect x="45.6" y="24.7" class="st0" width="6.3" height="2"/>
	<polygon class="st0" points="16.6,11.1 18.6,11.1 18.6,10.1 20.6,10.1 20.6,8.1 16.6,8.1 	"/>
	<rect x="24.7" y="8.1" class="st0" width="6.3" height="2"/>
	<rect x="35.2" y="8.1" class="st0" width="6.3" height="2"/>
	<rect x="45.6" y="8.1" class="st0" width="6.3" height="2"/>
	<path class="st0" d="M65,0H11.3c-1.7,0-3,1.3-3,3v9.5H0v18.6l8.3,0v34c0,1.7,1.3,3,3,3H65c1.7,0,3-1.3,3-3V3C68,1.3,66.7,0,65,0z
		 M2,14.5h39.4v14.6H31.1l-10.6-7.2l0.7,7.2L2,29.1V14.5z M23.2,49.2l8.4-10.5l11.5-1.5l-3-2.1h18v14.6H18.6V35.1h3.2L23.2,49.2z
		 M37.6,35.9l-7.1,0.9l-5.8,7.2l-1.8-18.2L37.6,35.9z M66,65c0,0.6-0.4,1-1,1H11.3c-0.6,0-1-0.4-1-1V31l11.1,0l0.2,2.1h-5.1v18.6H60
		V33.1H37.1l-3-2.1h9.4V12.5H10.3V3c0-0.6,0.4-1,1-1H65c0.6,0,1,0.4,1,1V65z"/>
	<rect x="17" y="55" class="st0" width="33" height="2"/>
	<rect x="17" y="60" class="st0" width="19" height="2"/>
</g>
</svg>
