<?xml version="1.0" encoding="utf-8"?>
<!-- Generator: Adobe Illustrator 22.1.0, SVG Export Plug-In . SVG Version: 6.00 Build 0)  -->
<svg version="1.1" id="Слой_1" xmlns="http://www.w3.org/2000/svg" xmlns:xlink="http://www.w3.org/1999/xlink" x="0px" y="0px"
	 viewBox="0 0 68 68" style="enable-background:new 0 0 68 68;" xml:space="preserve">
<style type="text/css">
	.st0{fill:#FFFFFF;}
</style>
<g>
	<path class="st0" d="M68,17.5C68,7.9,60.1,0,50.5,0C42.9,0,36.4,4.9,34,11.7c-1.8-0.5-3.6-0.7-5.5-0.7C17.3,11.1,8.3,20.1,8.4,31
		l0.1,11.2c0,3.4-1.6,6.7-4.4,8.7l-0.1,0.1c-2.5,1.8-3.9,4.7-3.9,7.7l0,1l19.7-0.2c0.3,5,4.1,8.4,9.3,8.4c0,0,0.1,0,0.1,0
		c2.5,0,4.9-0.9,6.5-2.5c1.6-1.6,2.6-3.7,2.7-6.1L58,59.2l0-1c0-3-1.6-5.9-4.1-7.7c-2.9-2-4.6-5.3-4.6-8.7l0-6.8
		c0.4,0,0.9,0.1,1.4,0.1C60.1,35,68,27.1,68,17.5z M50.5,2C59,2,66,9,66,17.5S59,33,50.5,33S35,26,35,17.5S41.9,2,50.5,2z M34.2,64
		C32.9,65.3,31.1,66,29,66c0,0-0.1,0-0.1,0c-3.5,0-6.9-2-7.3-6.4l14.6-0.2C36.1,61.3,35.4,62.9,34.2,64z M47.2,41.8
		c0,4.1,2.1,8,5.6,10.4c1.7,1.2,2.8,3,3.1,5L2,57.8c0.3-2,1.3-3.9,3-5.1l0.1-0.1c3.3-2.4,5.3-6.3,5.2-10.3L10.4,31
		c-0.1-9.8,8.1-17.9,18.2-18c1.6,0,3.3,0.2,4.9,0.6c-0.3,1.3-0.5,2.6-0.5,3.9c0,8.5,6.1,15.6,14.1,17.2L47.2,41.8z"/>
	<path class="st0" d="M48.9,23.7l8.5-8.5c0.4-0.4,0.4-1,0-1.4s-1-0.4-1.4,0L48.8,21L45,17.3c-0.4-0.4-1-0.4-1.4,0
		c-0.4,0.4-0.4,1,0,1.4L48.9,23.7z"/>
</g>
</svg>
